<mxfile host="app.diagrams.net" modified="2020-08-15T09:59:03.486Z" agent="5.0 (Macintosh; Intel Mac OS X 10_15_4) AppleWebKit/605.1.15 (KHTML, like Gecko) Version/13.1.2 Safari/605.1.15" etag="Nzq-RxWAsBGD3cJhjGmI" version="13.6.2" type="github">
  <diagram id="PGQh33GmGEEabXiE0Ceb" name="Page-1">
    <mxGraphModel dx="576" dy="912" grid="1" gridSize="10" guides="1" tooltips="1" connect="1" arrows="1" fold="1" page="1" pageScale="1" pageWidth="827" pageHeight="1169" math="0" shadow="0">
      <root>
        <mxCell id="0" />
        <mxCell id="1" parent="0" />
        <mxCell id="EsB_VxGgM87q5KJYcQod-2" value="俄耳甫斯教" style="rounded=0;whiteSpace=wrap;html=1;" vertex="1" parent="1">
          <mxGeometry x="100" y="90" width="120" height="50" as="geometry" />
        </mxCell>
      </root>
    </mxGraphModel>
  </diagram>
</mxfile>
